<svg xmlns="https://www.w3.org/2000/svg" xmlns:cc="https://creativecommons.org/ns#" xmlns:dc="https://purl.org/dc/elements/1.1/" xmlns:inkscape="https://www.inkscape.org/namespaces/inkscape" xmlns:rdf="https://www.w3.org/1999/02/22-rdf-syntax-ns#" xmlns:sodipodi="https://sodipodi.sourceforge.net/DTD/sodipodi-0.dtd" xmlns:svg="https://www.w3.org/2000/svg" id="SVGRoot" width="800" height="600" version="1.1" viewBox="0 0 800 600" inkscape:version="0.92.3 (2405546, 2018-03-11)" sodipodi:docname="card-stat.svg"><sodipodi:namedview id="base" bordercolor="#666666" borderopacity="1" pagecolor="#ffffff" showgrid="false" inkscape:bbox-nodes="true" inkscape:bbox-paths="true" inkscape:current-layer="layer1" inkscape:cx="-20.212" inkscape:cy="-63.489" inkscape:document-units="px" inkscape:object-paths="true" inkscape:pageopacity="0" inkscape:pageshadow="2" inkscape:snap-bbox="true" inkscape:snap-bbox-edge-midpoints="true" inkscape:snap-bbox-midpoints="true" inkscape:snap-center="true" inkscape:snap-grids="true" inkscape:snap-intersection-paths="true" inkscape:snap-midpoints="true" inkscape:snap-object-midpoints="true" inkscape:snap-page="true" inkscape:snap-smooth-nodes="true" inkscape:snap-text-baseline="true" inkscape:snap-to-guides="true" inkscape:window-height="1057" inkscape:window-maximized="0" inkscape:window-width="1920" inkscape:window-x="0" inkscape:window-y="0" inkscape:zoom=".226"/><metadata id="metadata1953"><rdf:RDF><cc:Work><dc:format>image/svg+xml</dc:format><dc:type rdf:resource="https://purl.org/dc/dcmitype/StillImage"/><dc:title/></cc:Work></rdf:RDF></metadata><g id="layer1" inkscape:groupmode="layer" inkscape:label="Layer 1"><path id="path1397" d="m -318.75,666.8732 c 0,0 336.27938,-182.90311 521.85904,-204.45166 178.79297,-20.76052 255.48135,121.11631 534.53226,76.52811 373.7859,5.61488 420.0797,-203.77253 646.9141,-212.93857 74.252,-3.00041 132.3481,67.25827 216.6946,52.3901 V 666.8732 Z" inkscape:connector-curvature="0" sodipodi:nodetypes="cacaccc" style="fill:#dfecff;fill-opacity:1;stroke:none;stroke-width:1px;stroke-linecap:butt;stroke-linejoin:miter;stroke-opacity:1"/><path style="fill:#c2daff;fill-opacity:1;stroke:none;stroke-width:1px;stroke-linecap:butt;stroke-linejoin:miter;stroke-opacity:1" id="path1374" d="m -318.75,666.8732 c 0,0 90.88647,-133.36648 162.24473,-157.98464 C 110.63472,416.7269 407.30595,644.5882 686.3569,600 878.3812,569.31733 887.9996,348.48842 1059.3878,357.65389 c 118.9779,6.36268 135.9442,48.97327 211.9507,74.80414 161.279,54.81074 268.173,-47.20219 329.9115,-181.38024 V 666.8732 Z" inkscape:connector-curvature="0" sodipodi:nodetypes="casssccc"/><path id="path1395" d="m -318.75,666.8732 c 0,0 107.39942,-84.86028 171.54455,-103.35432 268.32255,-77.36156 562.49953,31.91053 837.60295,-16.04681 116.256,-20.26629 219.9924,-88.64441 335.3784,-113.38797 188.4366,-40.40868 496.5682,192.81041 575.4741,-55.68291 v 288.47202 z" inkscape:connector-curvature="0" sodipodi:nodetypes="caaaccc" style="fill:#a2c7ff;fill-opacity:1;stroke:none;stroke-width:1px;stroke-linecap:butt;stroke-linejoin:miter;stroke-opacity:1"/></g></svg>